<svg width="72" height="55" viewBox="0 0 72 55" fill="none" xmlns="http://www.w3.org/2000/svg">
<path d="M11.1166 34.5005C11.0108 34.5005 10.9227 34.437 10.8522 34.3101C10.7887 34.1832 10.757 34.0669 10.757 33.9611C10.757 33.8412 10.7817 33.7496 10.831 33.6861C10.8804 33.6227 10.9721 33.5839 11.106 33.5698C11.4868 33.5486 11.8005 33.5134 12.0473 33.464C12.2941 33.4147 12.5056 33.3195 12.6819 33.1785C12.8652 33.0374 12.9569 32.8294 12.9569 32.5544V21.4493C12.9569 21.1673 12.8582 20.9558 12.6607 20.8148C12.4704 20.6737 12.2483 20.5821 11.9944 20.5398C11.7406 20.4904 11.4233 20.4516 11.0426 20.4234C10.8875 20.4093 10.7852 20.3811 10.7359 20.3388C10.6865 20.2895 10.6618 20.1872 10.6618 20.0321C10.6618 19.9263 10.6936 19.8135 10.757 19.6937C10.8275 19.5667 10.9157 19.4998 11.0214 19.4927H17.7903V19.5456L21.3333 29.4027L24.7177 20.4234C24.76 20.3177 24.7988 20.1625 24.8341 19.9581C24.8764 19.7536 24.8975 19.5985 24.8975 19.4927H31.0001C31.1058 19.4927 31.1904 19.5562 31.2539 19.6831C31.3244 19.81 31.3597 19.9263 31.3597 20.0321C31.3597 20.152 31.335 20.2436 31.2856 20.3071C31.2363 20.3705 31.1446 20.4093 31.0106 20.4234C29.9883 20.501 29.4771 20.7266 29.4771 21.1003V32.5439C29.4771 32.8259 29.5582 33.0374 29.7203 33.1785C29.8825 33.3124 30.0588 33.4006 30.2491 33.4429C30.4395 33.4852 30.7145 33.5275 31.0741 33.5698C31.2292 33.5839 31.3314 33.6156 31.3808 33.665C31.4302 33.7073 31.4548 33.806 31.4548 33.9611C31.4548 34.0669 31.4196 34.1832 31.3491 34.3101C31.2856 34.437 31.201 34.5005 31.0952 34.5005H24.2735C24.1678 34.5005 24.0796 34.437 24.0091 34.3101C23.9457 34.1832 23.9139 34.0669 23.9139 33.9611C23.9139 33.8412 23.9386 33.7496 23.988 33.6861C24.0373 33.6227 24.129 33.5839 24.263 33.5698C24.7072 33.5345 25.0914 33.464 25.4158 33.3582C25.7401 33.2525 25.9023 33.0974 25.9023 32.8929V20.9522H25.6061L20.5295 34.5005H19.9267L14.3847 20.9522H13.9828V32.5439C13.9828 32.8189 14.0885 33.0304 14.3001 33.1785C14.5116 33.3195 14.7513 33.4147 15.0193 33.464C15.2872 33.5063 15.6186 33.5416 16.0134 33.5698C16.1686 33.5839 16.2708 33.6156 16.3201 33.665C16.3695 33.7073 16.3942 33.806 16.3942 33.9611C16.3942 34.0669 16.3589 34.1832 16.2884 34.3101C16.225 34.437 16.1404 34.5005 16.0346 34.5005H11.1166Z" fill="#262626"/>
<path d="M41.5129 34.8178C40.2508 34.8178 38.9605 34.5569 37.642 34.0351C36.3305 33.5134 35.22 32.6708 34.3104 31.5074C33.4079 30.3369 32.9567 28.8457 32.9567 27.0336C32.9567 25.2215 33.4009 23.7268 34.2893 22.5493C35.1777 21.3718 36.2847 20.5151 37.6102 19.9792C38.9358 19.4434 40.272 19.1754 41.6187 19.1754C42.8314 19.1754 43.8996 19.2741 44.8233 19.4716C45.754 19.6619 46.4767 19.8735 46.9914 20.1061L47.2241 23.3848C47.2312 23.4976 47.1606 23.5963 47.0126 23.6809C46.8716 23.7655 46.7446 23.8078 46.6318 23.8078L46.4838 23.8184C46.3145 23.8184 46.1488 23.7937 45.9867 23.7444C45.8316 23.695 45.7434 23.6175 45.7223 23.5117C45.4473 22.4964 44.989 21.6891 44.3474 21.0897C43.7057 20.4904 42.7891 20.1907 41.5975 20.1907C40.9418 20.1907 40.2649 20.3776 39.5669 20.7513C38.8688 21.1179 38.2589 21.8089 37.7372 22.8242C37.2224 23.8396 36.9651 25.2427 36.9651 27.0336C36.9651 28.6342 37.2189 29.9421 37.7266 30.9574C38.2413 31.9728 38.8618 32.7025 39.588 33.1467C40.3143 33.5909 41.0158 33.813 41.6927 33.813C42.5811 33.813 43.1875 33.6861 43.5118 33.4323C43.8432 33.1785 44.0089 32.8506 44.0089 32.4487V29.6777C44.0089 29.3957 43.9102 29.1841 43.7128 29.0431C43.5154 28.9021 43.2897 28.8104 43.0359 28.7681C42.7891 28.7258 42.4577 28.687 42.0417 28.6518C41.8866 28.6377 41.7844 28.6095 41.735 28.5672C41.6856 28.5178 41.661 28.4156 41.661 28.2605C41.661 28.1547 41.6927 28.0384 41.7562 27.9115C41.8267 27.7845 41.9148 27.7211 42.0206 27.7211H48.6308C48.7365 27.7211 48.8211 27.7845 48.8846 27.9115C48.9551 28.0384 48.9904 28.1547 48.9904 28.2605C48.9904 28.3803 48.9657 28.472 48.9163 28.5355C48.867 28.5989 48.7753 28.6377 48.6413 28.6518C48.2747 28.6941 47.9891 28.7646 47.7847 28.8633C47.5872 28.962 47.4885 29.1171 47.4885 29.3287L47.4991 33.1996C47.3792 33.3759 47.0408 33.5945 46.4838 33.8553C45.9267 34.1162 45.2111 34.3418 44.3368 34.5322C43.4695 34.7226 42.5282 34.8178 41.5129 34.8178ZM51.1585 34.5005C51.0527 34.5005 50.9646 34.437 50.8941 34.3101C50.8306 34.1832 50.7989 34.0669 50.7989 33.9611C50.7989 33.8412 50.8236 33.7496 50.8729 33.6861C50.9223 33.6227 51.014 33.5839 51.1479 33.5698C51.571 33.5345 51.9306 33.4675 52.2267 33.3688C52.5299 33.2631 52.6815 33.1044 52.6815 32.8929L52.6921 21.4493C52.6921 21.1673 52.6074 20.9558 52.4382 20.8148C52.2761 20.6737 52.0892 20.5821 51.8777 20.5398C51.6662 20.4904 51.4017 20.4516 51.0845 20.4234C50.9293 20.4093 50.8271 20.3811 50.7777 20.3388C50.7284 20.2895 50.7037 20.1872 50.7037 20.0321C50.7037 19.9263 50.7354 19.81 50.7989 19.6831C50.8694 19.5562 50.9575 19.4927 51.0633 19.4927H57.7793C57.885 19.4927 57.9696 19.5562 58.0331 19.6831C58.1036 19.81 58.1389 19.9263 58.1389 20.0321C58.1389 20.152 58.1142 20.2436 58.0648 20.3071C58.0155 20.3705 57.9238 20.4093 57.7898 20.4234C56.7675 20.501 56.2563 20.7266 56.2563 21.1003L56.2457 32.5439C56.2457 32.8259 56.3268 33.0374 56.489 33.1785C56.6582 33.3195 56.8485 33.4147 57.0601 33.464C57.2716 33.5063 57.536 33.5416 57.8533 33.5698C58.0084 33.5839 58.1107 33.6156 58.16 33.665C58.2094 33.7073 58.234 33.806 58.234 33.9611C58.234 34.0669 58.1988 34.1832 58.1283 34.3101C58.0648 34.437 57.9802 34.5005 57.8744 34.5005H51.1585Z" fill="#ED3237"/>
<path d="M49.8466 2H2V52.8639" stroke="#ED3237" stroke-width="2.15525" stroke-linecap="round"/>
<path d="M70.3214 2V53.5105H25.4922" stroke="#262626" stroke-width="2.15525" stroke-linecap="round"/>
</svg>
