<svg width="13" height="13" viewBox="0 0 13 13" fill="none" xmlns="http://www.w3.org/2000/svg">
<path d="M11.9167 6.5H1.08337" stroke="white" stroke-linecap="round" stroke-linejoin="round"/>
<path d="M2.95212 2.768L1.08337 6.50008V9.75008C1.08337 10.0374 1.19751 10.3129 1.40067 10.5161C1.60384 10.7193 1.87939 10.8334 2.16671 10.8334H10.8334C11.1207 10.8334 11.3962 10.7193 11.5994 10.5161C11.8026 10.3129 11.9167 10.0374 11.9167 9.75008V6.50008L10.048 2.768C9.95827 2.58751 9.82001 2.43562 9.64872 2.3294C9.47744 2.22318 9.27992 2.16685 9.07837 2.16675H3.92171C3.72016 2.16685 3.52264 2.22318 3.35136 2.3294C3.18007 2.43562 3.04181 2.58751 2.95212 2.768Z" stroke="white" stroke-linecap="round" stroke-linejoin="round"/>
<path d="M3.25 8.66675H3.26" stroke="white" stroke-linecap="round" stroke-linejoin="round"/>
<path d="M5.41663 8.66675H5.42663" stroke="white" stroke-linecap="round" stroke-linejoin="round"/>
</svg>
