<svg width="22" height="17" viewBox="0 0 22 17" fill="none" xmlns="http://www.w3.org/2000/svg">
<path d="M6 7.57714L10 1.30347C10.7956 1.30347 11.5587 1.52379 12.1213 1.91597C12.6839 2.30815 13 2.84006 13 3.39469V6.18299H18.66C18.9499 6.1807 19.2371 6.22238 19.5016 6.30513C19.7661 6.38788 20.0016 6.50973 20.1919 6.66224C20.3821 6.81475 20.5225 6.99426 20.6033 7.18835C20.6842 7.38243 20.7035 7.58645 20.66 7.78626L19.28 14.0599C19.2077 14.3924 18.9654 14.6954 18.5979 14.9132C18.2304 15.1309 17.7623 15.2488 17.28 15.245H6M6 7.57714V15.245M6 7.57714H3C2.46957 7.57714 1.96086 7.72402 1.58579 7.98548C1.21071 8.24693 1 8.60154 1 8.97129V13.8508C1 14.2206 1.21071 14.5752 1.58579 14.8366C1.96086 15.0981 2.46957 15.245 3 15.245H6" stroke="white" stroke-width="2" stroke-linecap="round" stroke-linejoin="round"/>
</svg>
